<?xml version="1.0" encoding="iso-8859-1"?>
<!-- Uploaded to: SVG Repo, www.svgrepo.com, Generator: SVG Repo Mixer Tools -->
<svg xmlns="http://www.w3.org/2000/svg" xmlns:xlink="http://www.w3.org/1999/xlink" version="1.1" id="Layer_1"  viewBox="0 0 440 440" xml:space="preserve" width="512" height="512">
<g>
	<polygon style="fill:#4288BC;" points="440,231.82 361,321.82 79,321.82 0,231.82 65,117.82 220,64.82 375,117.82  "/>
	<path style="fill:#3679A3;" d="M112.79,215.04l-16.2,106.78H79l-79-90l65-114C65,117.82,83.02,185.27,112.79,215.04z"/>
	<path style="fill:#296684;" d="M321.373,210.322c0,0,0.213-0.219,0.611-0.63c0.375-0.382,0.945-0.981,1.683-1.77   c1.464-1.568,3.555-3.849,6-6.662c1.231-1.4,2.542-2.939,3.916-4.58c1.396-1.627,2.792-3.399,4.283-5.208   c1.448-1.836,2.962-3.728,4.454-5.685c1.472-1.968,3.02-3.945,4.463-5.987c1.47-2.027,2.942-4.06,4.317-6.107   c0.699-1.019,1.393-2.031,2.078-3.03c0.659-1.016,1.31-2.019,1.95-3.006c0.641-0.99,1.271-1.964,1.887-2.917   c0.589-0.969,1.165-1.918,1.725-2.841c1.117-1.852,2.203-3.595,3.1-5.256c0.925-1.653,1.774-3.169,2.525-4.512   c0.702-1.371,1.314-2.566,1.817-3.55c1.009-1.977,1.585-3.107,1.585-3.107s-0.359,1.216-0.986,3.345   c-0.316,1.068-0.701,2.364-1.141,3.851c-0.496,1.47-1.055,3.129-1.665,4.939c-0.586,1.827-1.338,3.754-2.107,5.812   c-0.388,1.029-0.787,2.085-1.194,3.166c-0.438,1.067-0.885,2.158-1.339,3.267c-0.457,1.111-0.922,2.24-1.393,3.384   c-0.499,1.13-1.005,2.274-1.514,3.428c-1,2.322-2.095,4.639-3.195,6.96c-1.073,2.338-2.255,4.614-3.374,6.889   c-1.139,2.262-2.31,4.461-3.433,6.602c-1.165,2.112-2.252,4.186-3.36,6.105c-1.087,1.934-2.131,3.756-3.122,5.424   c-1.963,3.349-3.678,6.106-4.908,8.042c-0.611,0.961-1.11,1.731-1.473,2.274c-0.34,0.514-0.522,0.788-0.522,0.788   c-2.297,3.469-6.971,4.42-10.441,2.123c-3.469-2.297-4.42-6.971-2.123-10.441c0.254-0.383,0.536-0.735,0.843-1.056L321.373,210.322   z"/>
	<path style="fill:#296684;" d="M362.604,247.167c0,0,0.435,0.216,1.197,0.593c0.36,0.18,0.797,0.399,1.299,0.65   c0.484,0.249,1.062,0.522,1.691,0.822c2.513,1.199,5.944,2.695,9.489,4.027c3.538,1.344,7.188,2.508,9.969,3.304   c2.78,0.796,4.673,1.255,4.673,1.255s-1.879,0.48-4.753,1.088c-2.873,0.607-6.757,1.312-10.715,1.808   c-3.954,0.511-7.978,0.822-11.02,0.954c-0.759,0.033-1.456,0.065-2.096,0.076c-0.623,0.015-1.166,0.028-1.614,0.039   c-0.85,0.023-1.335,0.037-1.335,0.037c-4.266,0.118-7.821-3.245-7.939-7.512s3.245-7.821,7.512-7.939   C360.257,246.332,361.517,246.634,362.604,247.167z"/>
	<path style="fill:#666666;" d="M361,314.15V319c0,31.03-63.13,56.18-141,56.18c-23.96,0-46.52-2.38-66.28-6.58   c0,0,0-0.01-0.01-0.01C109.25,359.15,79,340.48,79,319v-4.85c0-16.01,30.31-39.53,98-41.88l10.645-0.645   c6.99-0.24,34.224,1.356,41.524,1.356C307.039,272.981,361,296.48,361,314.15z"/>
	<path style="fill:#808080;" d="M361,235.82v51.56c-26-4.11-63.13-14.45-141-14.45c-28.85,0-55.67,1.96-78,5.34   c-37.98,5.73-63-2.02-63,9.11v-51.56c0-11.13,25.02-20.93,63-26.66c22.33-3.38,49.15-5.34,78-5.34   C297.87,203.82,361,218.14,361,235.82z"/>
	<path style="fill:#D8A664;" d="M244.33,90.71l13.77,13.91c-4.41,4.54-6.74,10.52-6.74,16.6c0,3.35,0.7,6.71,2.15,9.88l3.1,6.8   c7.14,15.61-1.89,33.03-17.26,37.3c-0.33,0.09-0.77,0.19-1.3,0.29c-7.08,1.39-13.46,5.17-18.05,10.74   c-4.59-5.57-10.98-9.35-18.06-10.74c-0.52-0.1-0.97-0.2-1.29-0.29c-15.38-4.27-24.4-21.69-17.27-37.3l3.1-6.8   c1.45-3.17,2.16-6.54,2.16-9.88c0-6.08-2.33-12.07-6.75-16.6l13.77-13.91c3.33,2.88,7.67,4.62,12.41,4.62   c4.52,0,8.67-1.58,11.93-4.22c3.26,2.64,7.4,4.22,11.92,4.22C236.67,95.33,241,93.59,244.33,90.71z"/>
	<path style="fill:#EAB96C;" d="M247.5,156.28c-2.13,4.58-6.08,7.97-10.83,9.28c-0.09,0.03-0.26,0.06-0.47,0.1   c-5.89,1.16-11.42,3.57-16.2,7c-4.48-3.21-9.58-5.52-15.02-6.75c-0.37-0.08-0.74-0.16-1.11-0.23c-0.24-0.05-0.42-0.08-0.55-0.12   c-4.74-1.31-8.69-4.7-10.82-9.28c-2.12-4.56-2.13-9.61-0.02-14.23l3.1-6.8c2.03-4.44,3.06-9.16,3.06-14.03   c0-5.48-1.3-10.77-3.76-15.51l2.43-2.45c3.4,1.36,7.05,2.07,10.76,2.07c4.13,0,8.2-0.89,11.93-2.57c2.94,1.33,6.09,2.16,9.33,2.45   c0.86,0.08,1.72,0.12,2.59,0.12c3.71,0,7.36-0.71,10.76-2.07l2.43,2.45c-2.45,4.75-3.75,10.04-3.75,15.51   c0,4.88,1.03,9.61,3.06,14.04l3.09,6.79C249.63,146.67,249.62,151.72,247.5,156.28z"/>
	<path style="fill:#4D4D4D;" d="M153.71,368.59C109.25,359.15,79,340.48,79,319v-4.85c0-16.01,41.572-49.455,119.53-31.63   C197.18,282.81,105.8,302.41,153.71,368.59z"/>
	<path style="fill:#296684;" d="M106.953,219.749c0,0-0.182-0.274-0.522-0.788c-0.364-0.543-0.862-1.313-1.473-2.274   c-1.23-1.936-2.945-4.693-4.908-8.042c-0.991-1.668-2.035-3.49-3.122-5.424c-1.108-1.919-2.196-3.993-3.36-6.105   c-1.122-2.141-2.294-4.34-3.433-6.602c-1.119-2.275-2.301-4.55-3.374-6.889c-1.1-2.321-2.194-4.639-3.195-6.96   c-0.509-1.153-1.015-2.297-1.514-3.428c-0.471-1.143-0.935-2.273-1.393-3.384c-0.455-1.109-0.902-2.199-1.339-3.267   c-0.407-1.08-0.806-2.137-1.194-3.166c-0.769-2.058-1.521-3.985-2.107-5.812c-0.61-1.81-1.17-3.469-1.665-4.939   c-0.441-1.487-0.825-2.784-1.141-3.851c-0.628-2.128-0.986-3.345-0.986-3.345s0.576,1.13,1.585,3.107   c0.504,0.984,1.116,2.179,1.817,3.55c0.752,1.343,1.6,2.859,2.526,4.512c0.896,1.661,1.983,3.404,3.1,5.256   c0.561,0.923,1.137,1.872,1.725,2.841c0.617,0.953,1.246,1.927,1.887,2.917c0.64,0.987,1.291,1.99,1.95,3.006   c0.685,0.999,1.379,2.01,2.078,3.03c1.375,2.047,2.847,4.08,4.317,6.107c1.443,2.042,2.991,4.019,4.463,5.987   c1.492,1.957,3.006,3.849,4.454,5.685c1.49,1.808,2.887,3.581,4.283,5.208c1.375,1.642,2.685,3.181,3.916,4.58   c2.445,2.814,4.535,5.095,5.999,6.662c0.738,0.789,1.307,1.388,1.683,1.77c0.398,0.411,0.611,0.63,0.611,0.63l0.023,0.024   c2.896,2.987,2.822,7.757-0.165,10.653c-2.987,2.896-7.757,2.822-10.653-0.165C107.506,220.504,107.201,220.117,106.953,219.749z"/>
	<path style="fill:#EAB96C;" d="M361,287.38v26.77c0-17.67-63.13-32-141-32c-28.85,0-55.67,1.96-78,5.34   c-37.98,5.73-63,15.53-63,26.66v-26.77c0-11.13,25.02-20.93,63-26.66c22.33-3.38,49.15-5.34,78-5.34   C297.87,255.38,361,269.71,361,287.38z"/>
	<path style="fill:#296684;" d="M80.604,261.818c0,0-0.485-0.013-1.335-0.037c-0.447-0.011-0.99-0.024-1.614-0.039   c-0.64-0.011-1.336-0.042-2.096-0.076c-3.041-0.131-7.066-0.443-11.019-0.954c-3.958-0.496-7.842-1.201-10.715-1.808   c-2.875-0.608-4.753-1.088-4.753-1.088s1.893-0.458,4.673-1.255c2.781-0.796,6.43-1.96,9.969-3.304   c3.544-1.332,6.975-2.828,9.489-4.027c0.63-0.3,1.207-0.573,1.691-0.822c0.502-0.251,0.939-0.47,1.299-0.65   c0.762-0.377,1.197-0.593,1.197-0.593c3.825-1.893,8.461-0.327,10.355,3.498c1.894,3.825,0.328,8.461-3.498,10.355   C83.086,261.594,81.815,261.847,80.604,261.818z"/>
	<path style="fill:#666666;" d="M142,209.16v51.56c-37.98,5.73-63,15.53-63,26.66v-51.56C79,224.69,104.02,214.89,142,209.16z"/>
	<path style="fill:#FCCC8B;" d="M247.5,156.28c-2.13,4.58-6.08,7.97-10.83,9.28c-0.09,0.03-0.26,0.06-0.47,0.1   c-5.89,1.16-11.42,3.57-16.2,7c-4.48-3.21-9.58-5.52-15.02-6.75l24.35-60.7c0.86,0.08,1.72,0.12,2.59,0.12   c3.71,0,7.36-0.71,10.76-2.07l2.43,2.45c-2.45,4.75-3.75,10.04-3.75,15.51c0,4.88,1.03,9.61,3.06,14.04l3.09,6.79   C249.63,146.67,249.62,151.72,247.5,156.28z"/>
	<path style="fill:#D8A664;" d="M142,260.72v26.77c-37.98,5.73-63,15.53-63,26.66v-26.77C79,276.25,104.02,266.45,142,260.72z"/>
</g>















</svg>