<!DOCTYPE svg PUBLIC "-//W3C//DTD SVG 1.1//EN" "http://www.w3.org/Graphics/SVG/1.1/DTD/svg11.dtd">
<!-- Uploaded to: SVG Repo, www.svgrepo.com, Transformed by: SVG Repo Mixer Tools -->
<svg height="800px" width="800px" version="1.1" id="Layer_1" xmlns="http://www.w3.org/2000/svg" xmlns:xlink="http://www.w3.org/1999/xlink" viewBox="0 0 512 512" xml:space="preserve" fill="#000000">
<g id="SVGRepo_bgCarrier" stroke-width="0"/>
<g id="SVGRepo_tracerCarrier" stroke-linecap="round" stroke-linejoin="round"/>
<g id="SVGRepo_iconCarrier"> <path style="fill:#E6E6E6;" d="M249.987,105.943c-4.865,0-8.807-3.943-8.807-8.807c0-10.499,4.622-16.158,7.996-20.29 c2.68-3.281,4.025-4.928,4.025-9.15c0-4.223-1.346-5.87-4.025-9.152c-3.374-4.132-7.996-9.792-7.996-20.292 s4.622-16.16,7.996-20.292c2.68-3.282,4.025-4.93,4.025-9.152c0-4.864,3.942-8.807,8.807-8.807s8.807,3.943,8.807,8.807 c0,10.499-4.622,16.159-7.996,20.291c-2.68,3.282-4.025,4.93-4.025,9.152s1.346,5.87,4.025,9.152 c3.374,4.132,7.996,9.792,7.996,20.291c0,10.499-4.622,16.158-7.996,20.29c-2.68,3.281-4.025,4.928-4.025,9.15 C258.794,102,254.852,105.943,249.987,105.943z"/> <path style="fill:#ffffff;" d="M256,77.842c119.892,0,217.085,97.182,217.085,217.073S375.892,512,256,512 S38.915,414.807,38.915,294.915S136.108,77.842,256,77.842z"/> <path style="fill:#E6E6E6;" d="M102.325,294.915c0-109.121,80.519-199.416,185.38-214.762C277.355,78.638,266.77,77.84,256,77.84 c-119.892,0-217.085,97.182-217.085,217.073S136.108,511.999,256,511.999c10.77,0,21.355-0.797,31.705-2.312 C182.844,494.342,102.325,404.036,102.325,294.915z"/> <path style="fill:#4dd15c;" d="M256,242.743c54.122,0,97.992,43.87,97.992,97.992c0,54.133-43.87,98.004-97.992,98.004 s-98.004-43.87-98.004-98.004C157.996,286.613,201.878,242.743,256,242.743z"/> <path style="fill:#4D4D4D;" d="M256,296.759c24.284,0,43.976,19.692,43.976,43.976c0,24.295-19.692,43.988-43.976,43.988 c-24.295,0-43.988-19.692-43.988-43.988C212.012,316.451,231.705,296.759,256,296.759z"/> <circle style="fill:#FFFFFF;" cx="298.59" cy="316.157" r="20.51"/> </g>
</svg>